<mxfile host="Electron" agent="Mozilla/5.0 (Windows NT 10.0; Win64; x64) AppleWebKit/537.36 (KHTML, like Gecko) draw.io/28.1.2 Chrome/138.0.7204.243 Electron/37.4.0 Safari/537.36" version="28.1.2">
  <diagram name="Page-1" id="RJM4-K2MwZebOBrO-5X2">
    <mxGraphModel dx="1427" dy="1903" grid="1" gridSize="10" guides="1" tooltips="1" connect="1" arrows="1" fold="1" page="1" pageScale="1" pageWidth="850" pageHeight="1100" math="0" shadow="0">
      <root>
        <mxCell id="0" />
        <mxCell id="1" parent="0" />
        <mxCell id="Njt8lJZ2vdJClkd5x8sc-1" value="End users" style="shape=umlActor;verticalLabelPosition=bottom;verticalAlign=top;html=1;outlineConnect=0;" vertex="1" parent="1">
          <mxGeometry x="435" y="120" width="30" height="60" as="geometry" />
        </mxCell>
        <mxCell id="Njt8lJZ2vdJClkd5x8sc-3" value="Phân tích cổ phiếu &amp;amp; Dự đoán giá" style="ellipse;whiteSpace=wrap;html=1;" vertex="1" parent="1">
          <mxGeometry x="90" y="470" width="120" height="80" as="geometry" />
        </mxCell>
        <mxCell id="Njt8lJZ2vdJClkd5x8sc-4" value="Xem thông tin thị trường VN/ Thế giới" style="ellipse;whiteSpace=wrap;html=1;" vertex="1" parent="1">
          <mxGeometry x="390" y="470" width="120" height="80" as="geometry" />
        </mxCell>
        <mxCell id="Njt8lJZ2vdJClkd5x8sc-6" value="" style="endArrow=classic;html=1;rounded=0;entryX=0.5;entryY=0;entryDx=0;entryDy=0;" edge="1" parent="1" target="Njt8lJZ2vdJClkd5x8sc-3">
          <mxGeometry width="50" height="50" relative="1" as="geometry">
            <mxPoint x="440" y="220" as="sourcePoint" />
            <mxPoint x="120" y="460" as="targetPoint" />
          </mxGeometry>
        </mxCell>
        <mxCell id="Njt8lJZ2vdJClkd5x8sc-7" value="" style="endArrow=classic;html=1;rounded=0;entryX=0.5;entryY=0;entryDx=0;entryDy=0;" edge="1" parent="1" target="Njt8lJZ2vdJClkd5x8sc-10">
          <mxGeometry width="50" height="50" relative="1" as="geometry">
            <mxPoint x="440" y="220" as="sourcePoint" />
            <mxPoint x="550" y="340.5" as="targetPoint" />
          </mxGeometry>
        </mxCell>
        <mxCell id="Njt8lJZ2vdJClkd5x8sc-9" value="" style="endArrow=classic;html=1;rounded=0;entryX=0.5;entryY=0;entryDx=0;entryDy=0;" edge="1" parent="1" target="Njt8lJZ2vdJClkd5x8sc-4">
          <mxGeometry width="50" height="50" relative="1" as="geometry">
            <mxPoint x="440" y="220" as="sourcePoint" />
            <mxPoint x="660.0041676949315" y="159.99756331159122" as="targetPoint" />
          </mxGeometry>
        </mxCell>
        <mxCell id="Njt8lJZ2vdJClkd5x8sc-10" value="Chat với AI Chatbot" style="ellipse;whiteSpace=wrap;html=1;" vertex="1" parent="1">
          <mxGeometry x="240" y="470" width="120" height="80" as="geometry" />
        </mxCell>
        <mxCell id="Njt8lJZ2vdJClkd5x8sc-15" value="Xem tin tức cổ phiếu" style="ellipse;whiteSpace=wrap;html=1;" vertex="1" parent="1">
          <mxGeometry x="540" y="470" width="120" height="80" as="geometry" />
        </mxCell>
        <mxCell id="Njt8lJZ2vdJClkd5x8sc-16" value="Xem thông tin công ty/doanh nghiệp" style="ellipse;whiteSpace=wrap;html=1;" vertex="1" parent="1">
          <mxGeometry x="680" y="470" width="120" height="80" as="geometry" />
        </mxCell>
        <mxCell id="Njt8lJZ2vdJClkd5x8sc-18" value="" style="endArrow=classic;html=1;rounded=0;" edge="1" parent="1" target="Njt8lJZ2vdJClkd5x8sc-15">
          <mxGeometry width="50" height="50" relative="1" as="geometry">
            <mxPoint x="440" y="220" as="sourcePoint" />
            <mxPoint x="570" y="230" as="targetPoint" />
          </mxGeometry>
        </mxCell>
        <mxCell id="Njt8lJZ2vdJClkd5x8sc-19" value="" style="endArrow=classic;html=1;rounded=0;entryX=0.305;entryY=0.082;entryDx=0;entryDy=0;entryPerimeter=0;" edge="1" parent="1" target="Njt8lJZ2vdJClkd5x8sc-16">
          <mxGeometry width="50" height="50" relative="1" as="geometry">
            <mxPoint x="440" y="220" as="sourcePoint" />
            <mxPoint x="490" y="170" as="targetPoint" />
          </mxGeometry>
        </mxCell>
        <mxCell id="Njt8lJZ2vdJClkd5x8sc-20" value="Hệ thống lưu trữ" style="shape=umlActor;verticalLabelPosition=bottom;verticalAlign=top;html=1;outlineConnect=0;" vertex="1" parent="1">
          <mxGeometry x="1090" y="540" width="30" height="60" as="geometry" />
        </mxCell>
        <mxCell id="Njt8lJZ2vdJClkd5x8sc-26" value="Cung cấp dữ liệu thị trường" style="ellipse;whiteSpace=wrap;html=1;" vertex="1" parent="1">
          <mxGeometry x="230" y="960" width="120" height="80" as="geometry" />
        </mxCell>
        <mxCell id="Njt8lJZ2vdJClkd5x8sc-27" value="Cung cấp dữ liệu tin tức" style="ellipse;whiteSpace=wrap;html=1;" vertex="1" parent="1">
          <mxGeometry x="395" y="1000" width="120" height="80" as="geometry" />
        </mxCell>
        <mxCell id="Njt8lJZ2vdJClkd5x8sc-28" value="Cung cấp dữ liệu công ty/Doanh nghiệp" style="ellipse;whiteSpace=wrap;html=1;" vertex="1" parent="1">
          <mxGeometry x="560" y="960" width="120" height="80" as="geometry" />
        </mxCell>
        <mxCell id="Njt8lJZ2vdJClkd5x8sc-36" value="Agent Thu thập dữ liệu" style="shape=umlActor;verticalLabelPosition=bottom;verticalAlign=top;html=1;outlineConnect=0;" vertex="1" parent="1">
          <mxGeometry x="440" y="830" width="30" height="60" as="geometry" />
        </mxCell>
        <mxCell id="Njt8lJZ2vdJClkd5x8sc-37" value="Agent Giao tiếp/hợp tác" style="shape=umlActor;verticalLabelPosition=bottom;verticalAlign=top;html=1;outlineConnect=0;" vertex="1" parent="1">
          <mxGeometry x="440" y="640" width="30" height="60" as="geometry" />
        </mxCell>
        <mxCell id="Njt8lJZ2vdJClkd5x8sc-38" value="Agent Phân tích dữ liệu&amp;nbsp;&lt;div&gt;&amp;amp; Dự đoán giá&lt;/div&gt;" style="shape=umlActor;verticalLabelPosition=bottom;verticalAlign=top;html=1;outlineConnect=0;" vertex="1" parent="1">
          <mxGeometry x="680" y="820" width="30" height="60" as="geometry" />
        </mxCell>
        <mxCell id="Njt8lJZ2vdJClkd5x8sc-49" value="" style="endArrow=classic;startArrow=classic;html=1;rounded=0;entryX=0.733;entryY=0.975;entryDx=0;entryDy=0;entryPerimeter=0;exitX=0.25;exitY=0.1;exitDx=0;exitDy=0;exitPerimeter=0;" edge="1" parent="1" source="Njt8lJZ2vdJClkd5x8sc-37" target="Njt8lJZ2vdJClkd5x8sc-3">
          <mxGeometry width="50" height="50" relative="1" as="geometry">
            <mxPoint x="310" y="870" as="sourcePoint" />
            <mxPoint x="360" y="820" as="targetPoint" />
          </mxGeometry>
        </mxCell>
        <mxCell id="Njt8lJZ2vdJClkd5x8sc-51" value="" style="endArrow=classic;startArrow=classic;html=1;rounded=0;entryX=0.683;entryY=0.925;entryDx=0;entryDy=0;entryPerimeter=0;exitX=0.25;exitY=0.1;exitDx=0;exitDy=0;exitPerimeter=0;" edge="1" parent="1" source="Njt8lJZ2vdJClkd5x8sc-37" target="Njt8lJZ2vdJClkd5x8sc-10">
          <mxGeometry width="50" height="50" relative="1" as="geometry">
            <mxPoint x="310" y="870" as="sourcePoint" />
            <mxPoint x="360" y="820" as="targetPoint" />
          </mxGeometry>
        </mxCell>
        <mxCell id="Njt8lJZ2vdJClkd5x8sc-52" value="" style="endArrow=classic;startArrow=classic;html=1;rounded=0;entryX=0.5;entryY=1;entryDx=0;entryDy=0;exitX=0.5;exitY=0;exitDx=0;exitDy=0;exitPerimeter=0;" edge="1" parent="1" source="Njt8lJZ2vdJClkd5x8sc-37" target="Njt8lJZ2vdJClkd5x8sc-4">
          <mxGeometry width="50" height="50" relative="1" as="geometry">
            <mxPoint x="310" y="870" as="sourcePoint" />
            <mxPoint x="360" y="820" as="targetPoint" />
          </mxGeometry>
        </mxCell>
        <mxCell id="Njt8lJZ2vdJClkd5x8sc-53" value="" style="endArrow=classic;startArrow=classic;html=1;rounded=0;entryX=0.5;entryY=1;entryDx=0;entryDy=0;exitX=0.5;exitY=0;exitDx=0;exitDy=0;exitPerimeter=0;" edge="1" parent="1" source="Njt8lJZ2vdJClkd5x8sc-37" target="Njt8lJZ2vdJClkd5x8sc-15">
          <mxGeometry width="50" height="50" relative="1" as="geometry">
            <mxPoint x="310" y="870" as="sourcePoint" />
            <mxPoint x="360" y="820" as="targetPoint" />
          </mxGeometry>
        </mxCell>
        <mxCell id="Njt8lJZ2vdJClkd5x8sc-54" value="" style="endArrow=classic;startArrow=classic;html=1;rounded=0;entryX=0.5;entryY=1;entryDx=0;entryDy=0;exitX=0.75;exitY=0.1;exitDx=0;exitDy=0;exitPerimeter=0;" edge="1" parent="1" source="Njt8lJZ2vdJClkd5x8sc-37" target="Njt8lJZ2vdJClkd5x8sc-16">
          <mxGeometry width="50" height="50" relative="1" as="geometry">
            <mxPoint x="310" y="870" as="sourcePoint" />
            <mxPoint x="360" y="820" as="targetPoint" />
          </mxGeometry>
        </mxCell>
        <mxCell id="Njt8lJZ2vdJClkd5x8sc-58" value="" style="endArrow=classic;startArrow=classic;html=1;rounded=0;exitX=0.5;exitY=0;exitDx=0;exitDy=0;exitPerimeter=0;" edge="1" parent="1" source="Njt8lJZ2vdJClkd5x8sc-36">
          <mxGeometry width="50" height="50" relative="1" as="geometry">
            <mxPoint x="330" y="790" as="sourcePoint" />
            <mxPoint x="455" y="720" as="targetPoint" />
          </mxGeometry>
        </mxCell>
        <mxCell id="Njt8lJZ2vdJClkd5x8sc-69" value="" style="endArrow=classic;startArrow=classic;html=1;rounded=0;" edge="1" parent="1">
          <mxGeometry width="50" height="50" relative="1" as="geometry">
            <mxPoint x="415" y="1380" as="sourcePoint" />
            <mxPoint x="465" y="1330" as="targetPoint" />
          </mxGeometry>
        </mxCell>
        <mxCell id="Njt8lJZ2vdJClkd5x8sc-72" value="" style="endArrow=classic;startArrow=classic;html=1;rounded=0;" edge="1" parent="1" source="Njt8lJZ2vdJClkd5x8sc-26">
          <mxGeometry width="50" height="50" relative="1" as="geometry">
            <mxPoint x="395" y="960" as="sourcePoint" />
            <mxPoint x="445" y="910" as="targetPoint" />
          </mxGeometry>
        </mxCell>
        <mxCell id="Njt8lJZ2vdJClkd5x8sc-73" value="" style="endArrow=classic;startArrow=classic;html=1;rounded=0;exitX=0.5;exitY=0;exitDx=0;exitDy=0;" edge="1" parent="1" source="Njt8lJZ2vdJClkd5x8sc-27">
          <mxGeometry width="50" height="50" relative="1" as="geometry">
            <mxPoint x="400" y="960" as="sourcePoint" />
            <mxPoint x="450" y="910" as="targetPoint" />
          </mxGeometry>
        </mxCell>
        <mxCell id="Njt8lJZ2vdJClkd5x8sc-74" value="" style="endArrow=classic;startArrow=classic;html=1;rounded=0;" edge="1" parent="1" target="Njt8lJZ2vdJClkd5x8sc-28">
          <mxGeometry width="50" height="50" relative="1" as="geometry">
            <mxPoint x="460" y="910" as="sourcePoint" />
            <mxPoint x="550" y="880" as="targetPoint" />
          </mxGeometry>
        </mxCell>
        <mxCell id="Njt8lJZ2vdJClkd5x8sc-77" value="" style="endArrow=classic;startArrow=classic;html=1;rounded=0;" edge="1" parent="1">
          <mxGeometry width="50" height="50" relative="1" as="geometry">
            <mxPoint x="480" y="860" as="sourcePoint" />
            <mxPoint x="670" y="860" as="targetPoint" />
          </mxGeometry>
        </mxCell>
        <mxCell id="Njt8lJZ2vdJClkd5x8sc-78" value="Dự đoán giá" style="ellipse;whiteSpace=wrap;html=1;" vertex="1" parent="1">
          <mxGeometry x="930" y="1010" width="120" height="80" as="geometry" />
        </mxCell>
        <mxCell id="Njt8lJZ2vdJClkd5x8sc-80" value="Khuyễn nghị đầu tư" style="ellipse;whiteSpace=wrap;html=1;" vertex="1" parent="1">
          <mxGeometry x="960" y="740" width="120" height="80" as="geometry" />
        </mxCell>
        <mxCell id="Njt8lJZ2vdJClkd5x8sc-81" value="Đánh giá rủi to" style="ellipse;whiteSpace=wrap;html=1;" vertex="1" parent="1">
          <mxGeometry x="1000" y="910" width="120" height="80" as="geometry" />
        </mxCell>
        <mxCell id="Njt8lJZ2vdJClkd5x8sc-82" value="" style="endArrow=classic;startArrow=classic;html=1;rounded=0;entryX=0;entryY=0.5;entryDx=0;entryDy=0;" edge="1" parent="1" target="Njt8lJZ2vdJClkd5x8sc-78">
          <mxGeometry width="50" height="50" relative="1" as="geometry">
            <mxPoint x="740" y="870" as="sourcePoint" />
            <mxPoint x="770" y="810" as="targetPoint" />
          </mxGeometry>
        </mxCell>
        <mxCell id="Njt8lJZ2vdJClkd5x8sc-83" value="" style="endArrow=classic;startArrow=classic;html=1;rounded=0;entryX=0;entryY=0.5;entryDx=0;entryDy=0;" edge="1" parent="1" target="Njt8lJZ2vdJClkd5x8sc-80">
          <mxGeometry width="50" height="50" relative="1" as="geometry">
            <mxPoint x="740" y="870" as="sourcePoint" />
            <mxPoint x="880" y="820" as="targetPoint" />
          </mxGeometry>
        </mxCell>
        <mxCell id="Njt8lJZ2vdJClkd5x8sc-84" value="" style="endArrow=classic;startArrow=classic;html=1;rounded=0;exitX=0;exitY=0.5;exitDx=0;exitDy=0;" edge="1" parent="1" source="Njt8lJZ2vdJClkd5x8sc-81">
          <mxGeometry width="50" height="50" relative="1" as="geometry">
            <mxPoint x="720" y="980" as="sourcePoint" />
            <mxPoint x="740" y="870" as="targetPoint" />
          </mxGeometry>
        </mxCell>
        <mxCell id="Njt8lJZ2vdJClkd5x8sc-88" value="" style="endArrow=classic;startArrow=classic;html=1;rounded=0;" edge="1" parent="1">
          <mxGeometry width="50" height="50" relative="1" as="geometry">
            <mxPoint x="440" y="220" as="sourcePoint" />
            <mxPoint x="1070" y="550" as="targetPoint" />
          </mxGeometry>
        </mxCell>
        <mxCell id="Njt8lJZ2vdJClkd5x8sc-89" value="" style="endArrow=classic;startArrow=classic;html=1;rounded=0;exitX=0.5;exitY=0.5;exitDx=0;exitDy=0;exitPerimeter=0;" edge="1" parent="1" source="Njt8lJZ2vdJClkd5x8sc-37">
          <mxGeometry width="50" height="50" relative="1" as="geometry">
            <mxPoint x="980" y="570" as="sourcePoint" />
            <mxPoint x="1080" y="550" as="targetPoint" />
          </mxGeometry>
        </mxCell>
        <mxCell id="Njt8lJZ2vdJClkd5x8sc-91" value="" style="endArrow=classic;startArrow=classic;html=1;rounded=0;" edge="1" parent="1">
          <mxGeometry width="50" height="50" relative="1" as="geometry">
            <mxPoint x="460" y="840" as="sourcePoint" />
            <mxPoint x="1070" y="560" as="targetPoint" />
          </mxGeometry>
        </mxCell>
        <mxCell id="Njt8lJZ2vdJClkd5x8sc-93" value="" style="endArrow=classic;startArrow=classic;html=1;rounded=0;" edge="1" parent="1">
          <mxGeometry width="50" height="50" relative="1" as="geometry">
            <mxPoint x="710" y="840" as="sourcePoint" />
            <mxPoint x="1080" y="560" as="targetPoint" />
          </mxGeometry>
        </mxCell>
        <mxCell id="Njt8lJZ2vdJClkd5x8sc-94" value="Cung cấp dữ liệu APII" style="ellipse;whiteSpace=wrap;html=1;" vertex="1" parent="1">
          <mxGeometry x="1155" y="340" width="120" height="80" as="geometry" />
        </mxCell>
        <mxCell id="Njt8lJZ2vdJClkd5x8sc-95" value="Xử lý data" style="ellipse;whiteSpace=wrap;html=1;" vertex="1" parent="1">
          <mxGeometry x="1215" y="480" width="120" height="80" as="geometry" />
        </mxCell>
        <mxCell id="Njt8lJZ2vdJClkd5x8sc-96" value="Lưu trữ vào database" style="ellipse;whiteSpace=wrap;html=1;" vertex="1" parent="1">
          <mxGeometry x="1240" y="640" width="120" height="80" as="geometry" />
        </mxCell>
        <mxCell id="Njt8lJZ2vdJClkd5x8sc-98" value="" style="endArrow=classic;html=1;rounded=0;entryX=0;entryY=1;entryDx=0;entryDy=0;" edge="1" parent="1" target="Njt8lJZ2vdJClkd5x8sc-94">
          <mxGeometry width="50" height="50" relative="1" as="geometry">
            <mxPoint x="1120" y="570" as="sourcePoint" />
            <mxPoint x="1170" y="520" as="targetPoint" />
          </mxGeometry>
        </mxCell>
        <mxCell id="Njt8lJZ2vdJClkd5x8sc-99" value="" style="endArrow=classic;html=1;rounded=0;entryX=0;entryY=0.5;entryDx=0;entryDy=0;" edge="1" parent="1" target="Njt8lJZ2vdJClkd5x8sc-95">
          <mxGeometry width="50" height="50" relative="1" as="geometry">
            <mxPoint x="1120" y="570" as="sourcePoint" />
            <mxPoint x="1170" y="520" as="targetPoint" />
          </mxGeometry>
        </mxCell>
        <mxCell id="Njt8lJZ2vdJClkd5x8sc-100" value="" style="endArrow=classic;html=1;rounded=0;" edge="1" parent="1">
          <mxGeometry width="50" height="50" relative="1" as="geometry">
            <mxPoint x="1120" y="570" as="sourcePoint" />
            <mxPoint x="1255" y="660" as="targetPoint" />
          </mxGeometry>
        </mxCell>
      </root>
    </mxGraphModel>
  </diagram>
</mxfile>
